<svg width="283" height="20" viewBox="0 0 283 20" fill="none" xmlns="http://www.w3.org/2000/svg">
<path fill-rule="evenodd" clip-rule="evenodd" d="M269.264 11.1493C274.123 11.5595 282.88 11.6872 282.247 16.5973C281.641 21.2926 270.302 19.1408 266.258 18.9634C198.621 16.6639 131.155 9.71262 66.9368 11.7384C50.3677 12.2771 33.6384 13.8746 16.0762 14.5884C13.1689 14.6926 0.58273 15.8314 0.405729 11.3459C0.212955 6.96464 9.57144 6.64187 13.4125 6.02522C49.2132 0.785671 87.2341 0.0183433 126.795 0.348334C149.9 0.473691 172.917 1.89334 196.601 3.84894C220.479 5.9406 244.903 8.66209 269.263 11.1521L269.264 11.1493Z" fill="#FED605"/>
</svg>
