<svg width="126" height="9" viewBox="0 0 126 9" fill="none" xmlns="http://www.w3.org/2000/svg">
<path fill-rule="evenodd" clip-rule="evenodd" d="M120.198 5.17236C122.358 5.35472 126.251 5.41149 125.969 7.59416C125.7 9.68134 120.659 8.72481 118.862 8.64597C88.7952 7.62375 58.805 4.53374 30.2583 5.43425C22.893 5.67372 15.4564 6.38383 7.64953 6.70114C6.35715 6.74746 0.762256 7.25371 0.683574 5.25979C0.597881 3.31219 4.75797 3.16871 6.46541 2.89459C22.3798 0.56548 39.281 0.224385 56.867 0.371073C67.1377 0.426797 77.3692 1.05787 87.8973 1.92718C98.512 2.85698 109.369 4.06675 120.198 5.17361L120.198 5.17236Z" fill="#FED605"/>
</svg>
