<svg width="82" height="8" viewBox="0 0 82 8" fill="none" xmlns="http://www.w3.org/2000/svg">
<g clip-path="url(#clip0_144_10542)">
<path d="M82 0.917607C77.7861 1.40059 73.5634 1.74893 69.3611 2.4112C66.3397 2.8876 63.3131 2.89638 60.2903 3.13934C55.9443 3.48841 51.595 3.72697 47.248 4.04457C46.6548 4.08775 46.063 4.22972 45.4656 4.22825C49.184 4.17044 52.9015 4.17337 56.6194 4.2846C58.9978 4.35632 61.3758 4.44487 63.7454 4.80125C64.0064 4.84077 64.2739 4.89858 64.5196 5.03177C64.8104 5.1891 64.9797 5.55866 64.9458 6.06287C64.9123 6.56122 64.7075 6.86858 64.4 6.94981C64.1939 7.00396 63.9785 6.99298 63.7682 6.97981C53.0559 6.30436 42.346 6.57732 31.6356 7.11885C25.155 7.4467 18.6757 7.86602 12.1918 7.99481C11.4874 8.00872 10.7816 7.99481 10.0786 7.93188C9.61423 7.8909 9.13454 7.746 8.99124 6.88394C8.85305 6.05189 9.20433 5.61501 9.61097 5.13422C9.42998 5.13422 9.24899 5.1269 9.06801 5.13495C6.8138 5.23667 4.5596 5.35669 2.30493 5.43426C1.69031 5.45548 1.07291 5.3662 0.458294 5.29741C0.27498 5.27765 -0.00185172 5.24911 9.33472e-06 4.89273C0.00187039 4.55098 0.270793 4.51146 0.45969 4.46902C2.01321 4.11848 3.57929 3.9831 5.14304 3.80235C9.55328 3.29375 13.9812 3.25643 18.3868 2.63147C27.2175 1.37791 36.0752 0.96371 44.9301 0.430962C51.1125 0.0592095 57.294 -0.171306 63.4792 0.158734C64.8346 0.231182 66.1978 0.247281 67.5419 0.496092C71.2654 1.18471 74.9983 0.604398 78.7241 0.810765C79.8142 0.871504 80.9071 0.820278 81.9991 0.820278C81.9991 0.853209 81.9995 0.885408 82 0.918339V0.917607Z" fill="#FED605"/>
</g>
<defs>
<clipPath id="clip0_144_10542">
<rect width="82" height="8" fill="white"/>
</clipPath>
</defs>
</svg>
