<svg width="130" height="8" viewBox="0 0 130 8" fill="none" xmlns="http://www.w3.org/2000/svg">
<path d="M130 7.08239C123.319 6.59941 116.625 6.25107 109.963 5.5888C105.173 5.1124 100.374 5.10362 95.5822 4.86066C88.6922 4.51159 81.797 4.27303 74.9054 3.95543C73.965 3.91225 73.0267 3.77028 72.0796 3.77175C77.9746 3.82956 83.8682 3.82663 89.7625 3.7154C93.5331 3.64368 97.3031 3.55513 101.06 3.19875C101.474 3.15923 101.898 3.10142 102.287 2.96823C102.748 2.8109 103.017 2.44134 102.963 1.93713C102.91 1.43878 102.585 1.13142 102.098 1.05019C101.771 0.996041 101.429 1.00702 101.096 1.02019C84.1131 1.69564 67.1339 1.42268 50.1541 0.881149C39.8798 0.553304 29.6078 0.133985 19.3284 0.00518847C18.2117 -0.00871563 17.0927 0.00518847 15.9782 0.0681233C15.2421 0.109104 14.4816 0.253999 14.2544 1.11606C14.0353 1.94811 14.5922 2.38499 15.2369 2.86578C14.95 2.86578 14.663 2.8731 14.3761 2.86505C10.8024 2.76333 7.22863 2.64331 3.65415 2.56574C2.67977 2.54452 1.70095 2.6338 0.726564 2.70259C0.435945 2.72235 -0.00293566 2.75089 1.47989e-05 3.10727C0.00296525 3.44902 0.429306 3.48854 0.728777 3.53098C3.19167 3.88152 5.67448 4.0169 8.1536 4.19765C15.1454 4.70625 22.1653 4.74357 29.1498 5.36853C43.1497 6.62209 57.1924 7.03629 71.2306 7.56904C81.032 7.94079 90.832 8.17131 100.638 7.84127C102.786 7.76882 104.948 7.75272 107.079 7.50391C112.982 6.81529 118.9 7.3956 124.806 7.18924C126.535 7.1285 128.267 7.17972 129.999 7.17972C129.999 7.14679 129.999 7.11459 130 7.08166V7.08239Z" fill="#FED605"/>
</svg>
