<svg width="68" height="5" viewBox="0 0 68 5" fill="none" xmlns="http://www.w3.org/2000/svg">
<path d="M67.9991 1.19117C65.653 1.66089 63.4445 2.15783 61.2238 2.53449C57.935 3.09289 54.6184 3.12889 51.3122 3.31151C35.4859 4.18774 39.8367 4.14033 24.0026 3.80318C16.2594 3.63812 20.6163 4.13243 12.873 4.05868C10.9067 4.04024 8.93956 4.01565 6.97326 3.99897C5.2718 3.98405 3.59474 4.24481 1.94294 4.79267C1.6781 4.88047 1.40803 4.95598 1.13708 4.99022C0.677959 5.04817 0.287661 4.85413 0.0907694 4.25973C-0.103508 3.67587 0.0289141 3.14557 0.346902 2.70482C0.867009 1.98399 1.55787 1.66879 2.24438 1.37379C4.0164 0.611696 5.85289 0.379029 7.69984 0.388687C18.2797 0.444878 16.7603 0.0489059 27.3437 0.30001C41.9302 0.645938 36.338 0.47034 50.9262 0.174458C54.4101 0.104219 57.8941 -0.153031 61.3797 0.129681C63.468 0.299132 65.5424 0.63628 67.6158 0.986597C67.7064 1.00152 67.7909 1.07703 68 1.19029L67.9991 1.19117Z" fill="#FED605"/>
</svg>
