<svg width="142" height="5" viewBox="0 0 142 5" fill="none" xmlns="http://www.w3.org/2000/svg">
<path d="M142 3.80883C137.1 3.33911 132.488 2.84217 127.852 2.46551C120.985 1.90711 114.059 1.87111 107.154 1.68849C74.1048 0.81226 83.1901 0.859672 50.1253 1.19682C33.9555 1.36188 43.0532 0.867574 26.8835 0.941325C22.7765 0.959763 18.6695 0.984346 14.5625 1.00103C11.0101 1.01595 7.50812 0.755191 4.05834 0.207327C3.50549 0.119528 2.94114 0.0440211 2.37503 0.00977945C1.41616 -0.0481677 0.601485 0.145868 0.189281 0.740265C-0.215847 1.32413 0.060135 1.85443 0.724439 2.29518C1.81156 3.01601 3.25251 3.33121 4.68726 3.62621C8.39091 4.3883 12.2255 4.62097 16.0822 4.61131C38.1758 4.55512 35.0029 4.95109 57.1027 4.69999C87.5634 4.35406 75.8845 4.52966 106.348 4.82554C113.622 4.89578 120.898 5.15303 128.176 4.87032C132.536 4.70087 136.868 4.36372 141.198 4.0134C141.387 3.99848 141.564 3.92297 142 3.80971V3.80883Z" fill="#FED605"/>
</svg>
