<svg width="82" height="8" viewBox="0 0 82 8" fill="none" xmlns="http://www.w3.org/2000/svg">
<path d="M82 0.918095C77.7861 1.40108 73.5634 1.74942 69.3611 2.41169C66.3397 2.88809 63.3131 2.89687 60.2903 3.13983C55.9443 3.4889 51.595 3.72746 47.248 4.04506C46.6548 4.08824 46.063 4.23021 45.4656 4.22874C49.184 4.17093 52.9015 4.17386 56.6194 4.28509C58.9978 4.35681 61.3758 4.44535 63.7454 4.80174C64.0064 4.84126 64.2739 4.89907 64.5196 5.03226C64.8104 5.18959 64.9797 5.55915 64.9458 6.06336C64.9123 6.56171 64.7075 6.86906 64.4 6.95029C64.1939 7.00445 63.9785 6.99347 63.7682 6.9803C53.0559 6.30485 42.346 6.57781 31.6356 7.11934C25.155 7.44718 18.6757 7.8665 12.1918 7.9953C11.4874 8.0092 10.7816 7.9953 10.0786 7.93236C9.61423 7.89138 9.13454 7.74649 8.99124 6.88443C8.85305 6.05238 9.20433 5.6155 9.61097 5.13471C9.42998 5.13471 9.24899 5.12739 9.06801 5.13544C6.8138 5.23716 4.5596 5.35717 2.30493 5.43474C1.69031 5.45597 1.07291 5.36669 0.458294 5.2979C0.27498 5.27814 -0.00185172 5.2496 9.33472e-06 4.89321C0.00187039 4.55147 0.270793 4.51195 0.45969 4.4695C2.01321 4.11897 3.57929 3.98359 5.14304 3.80284C9.55328 3.29424 13.9812 3.25692 18.3868 2.63196C27.2175 1.3784 36.0752 0.964198 44.9301 0.43145C51.1125 0.0596978 57.294 -0.170818 63.4792 0.159222C64.8346 0.23167 66.1978 0.24777 67.5419 0.49658C71.2654 1.1852 74.9983 0.604886 78.7241 0.811253C79.8142 0.871992 80.9071 0.820766 81.9991 0.820766C81.9991 0.853697 81.9995 0.885896 82 0.918827V0.918095Z" fill="#FED605"/>
</svg>
