<svg width="93" height="8" viewBox="0 0 93 8" fill="none" xmlns="http://www.w3.org/2000/svg">
<g clip-path="url(#clip0_144_10242)">
<path d="M6.89804 5.1883C6.83571 4.85627 6.77338 4.54498 6.72144 4.28558C6.83571 3.81865 7.19932 3.55925 7.41748 3.16496C8.91346 2.53201 10.5653 2.36599 12.1859 2.17922C13.3079 2.04433 14.4403 1.91982 15.583 1.94057C16.2687 1.95095 16.9024 1.56703 17.6712 1.55665C19.697 1.5359 21.7332 1.32838 23.759 1.20387C26.5639 1.02747 29.3793 0.996344 32.1842 0.809573C34.5113 0.653931 36.8592 0.477537 39.1863 0.477537C40.9835 0.477537 42.7808 0.384152 44.578 0.373775C45.4507 0.373775 46.3337 0.0624914 47.1856 0.446408C47.6635 -0.0620222 48.3387 0.0832437 48.8997 0.0936198C51.0502 0.0936198 53.211 0.332271 55.3511 0.207757C57.9379 0.0624914 60.5143 0.311519 63.0907 0.0832437C63.6413 0.031363 64.2127 0.124748 64.7737 0.135124C66.4255 0.1455 68.0669 0.373775 69.7291 0.0521153C70.3421 -0.0620222 71.0589 0.0936198 71.7238 0.1455C74.2379 0.332271 76.7415 0.114372 79.2556 0.166253C81.4165 0.207757 83.5773 0.135124 85.7382 0.0832437C87.7536 0.031363 89.6963 0.41528 91.6494 0.747316C92.2 0.840702 92.5948 1.06898 92.9895 1.36988C92.9895 2.28298 92.9688 2.29336 92.2415 2.50088C91.1507 2.81217 90.0287 2.77066 88.9171 2.86405C86.694 3.04044 84.4604 3.04044 82.2372 3.27909C81.5619 3.35173 80.8659 3.34135 80.1802 3.31022C77.8947 3.20646 75.6092 3.31022 73.3236 3.27909C72.1393 3.26872 70.9135 3.15458 69.7291 3.46586C69.1889 3.60075 68.711 3.24797 68.1604 3.26872C65.5009 3.3621 62.8414 3.44511 60.1819 3.41398C58.4678 3.39323 56.7744 3.54887 55.081 3.62151C52.8163 3.70451 50.5308 3.92241 48.2764 3.93279C46.1779 3.93279 44.069 4.02618 41.96 4.0158C40.9212 4.0158 39.8407 4.16107 38.7707 4.20257C36.6202 4.28558 34.4802 4.39972 32.3297 4.4516C31.9972 4.4516 31.6648 4.4516 31.322 4.48273C30.1169 4.62799 28.9014 4.61761 27.634 4.39972C27.4366 4.52423 27.1873 4.711 26.8029 4.73175C24.7978 4.81476 22.8032 4.96003 20.7982 5.01191C19.832 5.03266 18.897 5.26093 17.9309 5.27131C16.9855 5.27131 16.0194 5.47883 15.0844 5.27131C14.7208 5.1883 14.5338 5.43733 14.2429 5.44771C12.7157 5.52034 11.1782 5.58259 9.65106 5.69673C8.71607 5.76937 7.80186 5.83162 6.89804 5.21943V5.1883Z" fill="#FED605"/>
<path d="M0.737601 7.99988C0.218164 7.79236 0.16622 7.48107 0 7.22167C0.0519437 7.13866 0.0831099 7.00377 0.176609 6.94151C0.831099 6.49534 1.49598 6.14255 2.34786 5.99728C4.18666 5.69638 6.03586 5.50961 7.88505 5.28133C10.9186 4.89741 13.9729 4.84553 17.0168 4.63801C18.2634 4.54462 19.5828 4.63801 20.8398 4.53425C23.6448 4.2956 26.4497 4.43049 29.2443 4.26447C30.9377 4.16071 32.6206 4.26447 34.314 4.26447C35.8515 4.26447 37.3995 4.22296 38.937 4.12958C42.0432 3.94281 45.1599 4.19184 48.2661 4.06732C49.8348 4.00507 51.4243 3.96356 52.9826 4.10883C55.0811 4.30597 57.19 4.23334 59.2574 4.12958C61.7091 4.01544 64.1505 4.09845 66.5814 4.09845C69.1578 4.09845 71.7343 3.96356 74.3107 4.12958C75.1833 4.18146 76.0767 4.16071 76.9494 4.1192C78.8713 4.02582 80.7828 4.24372 82.7152 4.17108C84.4812 4.10883 86.2577 4.38898 88.003 4.68989C88.8653 4.83516 89.125 5.19832 89.1873 6.10105C88.751 6.5991 88.0757 6.76512 87.4732 6.80662C85.1773 6.94151 82.9021 7.27355 80.5855 7.18016C78.0714 7.0764 75.5365 7.22167 73.0225 7.11791C71.807 7.06603 70.5811 7.06603 69.3656 6.92076C68.6384 6.83775 67.8592 6.92076 67.1009 6.94151C63.5271 7.04527 59.9638 6.76512 56.3901 6.78587C54.0318 6.79625 51.6632 6.95189 49.3257 6.80662C46.8532 6.65098 44.3911 6.80662 41.929 6.84813C39.3837 6.88963 36.8281 6.77549 34.2932 6.87926C32.2363 6.97264 30.1793 7.0349 28.1223 7.16979C26.1588 7.30468 24.1746 7.32543 22.2111 7.35656C20.4554 7.38769 18.7101 7.56408 16.9544 7.57446C15.9571 7.57446 14.939 7.40844 13.9729 7.57446C12.6015 7.80273 11.2302 7.54333 9.84853 7.78198C8.82004 7.95837 7.70845 7.96875 6.64879 7.948C4.64377 7.90649 2.64913 7.97913 0.737601 8.01025V7.99988Z" fill="#FED605"/>
</g>
<defs>
<clipPath id="clip0_144_10242">
<rect width="93" height="8" fill="white"/>
</clipPath>
</defs>
</svg>
