<svg width="185" height="16" viewBox="0 0 185 16" fill="none" xmlns="http://www.w3.org/2000/svg">
<g clip-path="url(#clip0_68_27730)">
<path d="M13.722 10.3761C13.5981 9.71204 13.4741 9.08948 13.3707 8.57067C13.5981 7.63682 14.3214 7.11801 14.7553 6.32942C17.7312 5.06353 21.0171 4.7315 24.2409 4.35796C26.4728 4.08818 28.7254 3.83915 30.9986 3.88066C32.3626 3.90141 33.6232 3.13357 35.1525 3.11282C39.1823 3.07132 43.2328 2.65627 47.2626 2.40724C52.8424 2.05446 58.4428 1.9922 64.0225 1.61866C68.6517 1.30737 73.3221 0.954585 77.9513 0.954585C81.5265 0.954585 85.1016 0.767815 88.6768 0.747063C90.4127 0.747063 92.1693 0.124495 93.8639 0.892329C94.8145 -0.124533 96.1578 0.165999 97.2738 0.186751C101.552 0.186751 105.85 0.664053 110.107 0.415026C115.253 0.124495 120.378 0.622549 125.503 0.165999C126.598 0.0622377 127.735 0.249008 128.851 0.26976C132.137 0.290513 135.402 0.747063 138.709 0.103742C139.928 -0.124533 141.354 0.186751 142.676 0.290513C147.678 0.664054 152.658 0.228256 157.659 0.332017C161.958 0.415026 166.256 0.26976 170.555 0.165999C174.564 0.0622377 178.428 0.830072 182.313 1.49414C183.409 1.68091 184.194 2.13747 184.979 2.73928C184.979 4.56548 184.938 4.58623 183.491 5.00128C181.321 5.62385 179.09 5.54084 176.878 5.72761C172.456 6.0804 168.013 6.0804 163.59 6.5577C162.247 6.70296 160.862 6.68221 159.498 6.61996C154.952 6.41243 150.405 6.61996 145.859 6.5577C143.503 6.53695 141.065 6.30867 138.709 6.93124C137.634 7.20102 136.683 6.49544 135.588 6.53695C130.298 6.72372 125.007 6.88973 119.717 6.82748C116.307 6.78597 112.938 7.09726 109.57 7.24252C105.065 7.40854 100.518 7.84434 96.0338 7.86509C91.8593 7.86509 87.6642 8.05186 83.469 8.03111C81.4024 8.03111 79.2532 8.32164 77.1246 8.40465C72.8468 8.57067 68.5897 8.79894 64.3119 8.90271C63.6506 8.90271 62.9892 8.90271 62.3073 8.96496C59.91 9.25549 57.4922 9.23474 54.9709 8.79894C54.5783 9.04797 54.0823 9.42151 53.3177 9.46302C49.3292 9.62903 45.3613 9.91957 41.3729 10.0233C39.4509 10.0648 37.591 10.5214 35.6691 10.5421C33.7885 10.5421 31.8666 10.9572 30.0067 10.5421C29.2834 10.3761 28.9114 10.8742 28.3327 10.8949C25.2949 11.0402 22.2363 11.1647 19.1985 11.393C17.3386 11.5382 15.52 11.6628 13.722 10.4384V10.3761Z" fill="#FED605"/>
<path d="M1.46727 15.9998C0.433981 15.5847 0.330652 14.9621 0 14.4433C0.103329 14.2773 0.165326 14.0075 0.351318 13.883C1.65326 12.9907 2.97587 12.2851 4.67046 11.9946C8.32831 11.3928 12.0068 11.0192 15.6853 10.5627C21.7197 9.79483 27.7955 9.69106 33.8505 9.27602C36.3304 9.08925 38.955 9.27602 41.4555 9.0685C47.0353 8.59119 52.6151 8.86097 58.1742 8.52894C61.5427 8.32142 64.8905 8.52894 68.259 8.52894C71.3176 8.52894 74.3968 8.44593 77.4553 8.25916C83.6344 7.88562 89.8341 8.38367 96.0132 8.13465C99.1337 8.01013 102.296 7.92712 105.395 8.21765C109.57 8.61195 113.765 8.46668 117.878 8.25916C122.755 8.03088 127.611 8.1969 132.447 8.1969C137.572 8.1969 142.697 7.92712 147.822 8.25916C149.558 8.36292 151.335 8.32142 153.071 8.23841C156.895 8.05164 160.697 8.48743 164.541 8.34217C168.054 8.21765 171.588 8.77797 175.06 9.37978C176.775 9.67031 177.292 10.3966 177.416 12.2021C176.548 13.1982 175.204 13.5302 174.006 13.6132C169.439 13.883 164.913 14.5471 160.304 14.3603C155.303 14.1528 150.261 14.4433 145.26 14.2358C142.842 14.1321 140.403 14.1321 137.985 13.8415C136.539 13.6755 134.989 13.8415 133.48 13.883C126.371 14.0905 119.283 13.5302 112.174 13.5717C107.483 13.5925 102.771 13.9038 98.1211 13.6132C93.2026 13.302 88.3049 13.6132 83.4071 13.6963C78.3439 13.7793 73.2602 13.551 68.2177 13.7585C64.1259 13.9453 60.0341 14.0698 55.9422 14.3396C52.0364 14.6094 48.0893 14.6509 44.1834 14.7131C40.6909 14.7754 37.2191 15.1282 33.7265 15.1489C31.7426 15.1489 29.7174 14.8169 27.7955 15.1489C25.0676 15.6055 22.3397 15.0867 19.5912 15.564C17.5452 15.9167 15.334 15.9375 13.2261 15.896C9.2376 15.813 5.26977 15.9583 1.46727 16.0205V15.9998Z" fill="#FED605"/>
</g>
<defs>
<clipPath id="clip0_68_27730">
<rect width="185" height="16" fill="white"/>
</clipPath>
</defs>
</svg>
