<svg width="262" height="16" viewBox="0 0 262 16" fill="none" xmlns="http://www.w3.org/2000/svg">
<path d="M262 1.8357C248.536 2.80167 235.044 3.49834 221.617 4.8229C211.963 5.77569 202.293 5.79326 192.635 6.27917C178.749 6.9773 164.852 7.45444 150.963 8.08964C149.068 8.17599 147.177 8.45992 145.268 8.457C157.149 8.34137 169.027 8.34723 180.906 8.56969C188.505 8.71313 196.103 8.89022 203.674 9.60299C204.508 9.68202 205.363 9.79765 206.148 10.064C207.077 10.3787 207.618 11.1178 207.509 12.1262C207.402 13.1229 206.748 13.7376 205.766 13.9001C205.107 14.0084 204.419 13.9865 203.747 13.9601C169.52 12.6092 135.301 13.1551 101.08 14.2382C80.3731 14.8939 59.6711 15.7325 38.9541 15.9901C36.7035 16.0179 34.4483 15.9901 32.2021 15.8642C30.7185 15.7823 29.1858 15.4925 28.728 13.7684C28.2865 12.1043 29.4088 11.2305 30.7081 10.2689C30.1298 10.2689 29.5515 10.2543 28.9733 10.2704C21.7708 10.4738 14.5683 10.7139 7.3644 10.869C5.40064 10.9114 3.42795 10.7329 1.46418 10.5953C0.878474 10.5558 -0.00603855 10.4987 -9.22448e-05 9.78594C0.00585406 9.10244 0.865095 9.02341 1.46864 8.93852C6.43232 8.23746 11.4361 7.96669 16.4325 7.60519C30.5238 6.58799 44.6715 6.51335 58.7479 5.26344C86.9631 2.7563 115.265 1.92791 143.557 0.862413C163.311 0.118907 183.061 -0.342125 202.824 0.317956C207.154 0.462852 211.51 0.495051 215.805 0.992672C227.702 2.36991 239.628 1.20928 251.533 1.62202C255.016 1.7435 258.508 1.64104 261.997 1.64104C261.997 1.70691 261.998 1.7713 262 1.83717V1.8357Z" fill="#FED605"/>
</svg>
