<svg width="131" height="8" viewBox="0 0 131 8" fill="none" xmlns="http://www.w3.org/2000/svg">
<g clip-path="url(#clip0_144_10210)">
<path d="M131 0.918095C124.268 1.40108 117.522 1.74942 110.809 2.41169C105.982 2.88809 101.147 2.89687 96.3175 3.13983C89.3744 3.4889 82.4262 3.72746 75.4816 4.04506C74.5339 4.08824 73.5885 4.23021 72.6341 4.22874C78.5744 4.17093 84.5133 4.17386 90.4529 4.28509C94.2526 4.35681 98.0516 4.44535 101.837 4.80174C102.254 4.84126 102.682 4.89907 103.074 5.03226C103.539 5.18959 103.809 5.55915 103.755 6.06336C103.701 6.56171 103.374 6.86906 102.883 6.95029C102.554 7.00445 102.21 6.99347 101.874 6.9803C84.7601 6.30485 67.6503 6.57781 50.5399 7.11934C40.1866 7.44718 29.8356 7.8665 19.4771 7.9953C18.3518 8.0092 17.2242 7.9953 16.1011 7.93236C15.3593 7.89138 14.593 7.74649 14.364 6.88443C14.1433 6.05238 14.7045 5.6155 15.3541 5.13471C15.065 5.13471 14.7758 5.12739 14.4867 5.13544C10.8855 5.23716 7.28423 5.35717 3.68226 5.43474C2.70038 5.45597 1.71404 5.36669 0.732153 5.2979C0.439298 5.27814 -0.00295824 5.2496 1.49128e-05 4.89321C0.00298806 4.55147 0.432608 4.51195 0.734383 4.4695C3.21622 4.11897 5.71813 3.98359 8.21632 3.80284C15.2619 3.29424 22.3358 3.25692 29.374 2.63196C43.4816 1.3784 57.6323 0.964198 71.7786 0.43145C81.6554 0.0596978 91.5307 -0.170818 101.412 0.159222C103.577 0.23167 105.755 0.24777 107.902 0.49658C113.851 1.1852 119.814 0.604886 125.767 0.811253C127.508 0.871992 129.254 0.820766 130.999 0.820766C130.999 0.853697 130.999 0.885896 131 0.918827V0.918095Z" fill="#FED605"/>
</g>
<defs>
<clipPath id="clip0_144_10210">
<rect width="131" height="8" fill="white"/>
</clipPath>
</defs>
</svg>
