<svg width="118" height="47" viewBox="0 0 118 47" fill="none" xmlns="http://www.w3.org/2000/svg">
<g clip-path="url(#clip0_214_529)">
<path d="M27.6157 8.54248L24.2605 24.2961L19.5852 8.54248H13.809L9.43287 24.2522L6.37233 8.54248H0L5.863 30.5195H12.3632L16.6982 15.3659L21.031 30.5195H27.8715L33.9035 8.54248H27.6157Z" fill="#1D4FFF"/>
<path d="M53.2421 18.6126L53.0594 18.5642V18.848C53.0228 19.0026 52.6688 19.9095 52.4176 20.4148C51.4903 22.3878 49.2223 25.6991 44.4556 25.6991C42.5073 25.6991 40.9085 25.0184 39.9858 23.8115C40.3992 23.8623 40.8286 23.89 41.2397 23.89C47.3699 23.89 50.7594 18.3242 50.7594 14.4775C50.7594 10.6308 47.7879 7.59412 43.9965 7.59412C39.0128 7.59412 34.7029 12.4261 33.9675 18.8434C33.9172 19.4549 33.8647 20.0848 33.8647 20.7702C33.8647 26.7975 38.2203 31.0064 44.4556 31.0064C48.3406 31.0064 51.2048 29.5504 53.2398 27.8105V30.3465H59.0594V0H53.2398V18.6126H53.2421ZM43.9965 12.9061C44.869 12.9061 45.5039 13.5683 45.5039 14.4798C45.5039 15.6613 44.2363 18.6334 41.2397 18.6334C40.4723 18.6334 39.8008 18.3842 39.4057 18.1419C40.1525 15.0521 42.0254 12.9061 43.9965 12.9061Z" fill="#1D4FFF"/>
<path d="M68.8714 0H63.0518V30.3488H68.8714V0Z" fill="#1D4FFF"/>
<path d="M107.165 9.35243C99.3535 9.35243 96.7292 14.0414 96.3752 19.3256L96.0965 20.4494C94.9111 24.9653 92.3805 27.7389 88.6644 28.8281L87.8559 28.9919C89.0938 24.4207 90.334 19.6348 91.3573 15.7697L93.1342 9.18629L88.2328 7.82715L87.8011 9.6778C86.3462 8.53556 84.5167 7.88253 82.5776 7.88253C79.2384 7.88253 76.2236 9.51396 74.1223 12.3984C72.2905 14.9021 71.3221 18.1649 71.3221 21.5939C71.3221 27.0882 75.1455 31.3341 80.047 31.3341H80.369C75.954 33.1293 72.1306 35.903 72.1306 41.1273C72.1306 44.2817 74.7687 47.0023 77.9457 47.0023C83.1692 47.0023 84.4619 41.9418 84.9461 40.0935L85.0535 39.7681C85.4303 38.2982 85.862 36.5583 86.3987 34.7077C86.9903 34.5439 87.6366 34.327 88.283 34.1631L90.0051 33.6739C92.5975 32.9724 95.7357 31.3687 98.1407 27.9489C99.7235 30.3811 102.499 32.0194 107.073 32.0194C115.529 32.0194 117.993 26.5667 117.993 20.6432C117.993 14.7198 115.529 9.35474 107.16 9.35474L107.165 9.35243ZM80.1566 38.4575C80.1566 38.5659 80.1018 38.6744 80.1018 38.7851C79.4006 41.4503 78.8638 41.8865 77.948 41.8865C77.4638 41.8865 77.1394 41.4503 77.1394 41.125C77.1394 39.2213 78.4322 37.8598 80.6408 36.7729L80.1566 38.4598V38.4575ZM85.5422 18.0542L85.5148 18.0703C85.2476 19.5725 84.7999 21.737 84.2792 22.8239C83.8361 24.633 82.3013 26.269 80.0492 26.269C77.6807 26.269 76.3332 23.8761 76.3332 21.5893C76.3332 17.4011 78.5418 12.9384 82.5799 12.9384C83.6579 12.9384 84.5715 13.3745 85.1106 14.136C85.5696 14.7059 85.7957 15.5113 85.7752 16.4574C85.7661 16.9558 85.6884 17.4911 85.5399 18.0519L85.5422 18.0542ZM107.08 26.9936C103.172 26.9936 102.067 24.2891 102.067 20.6409C102.067 16.9927 103.172 14.3321 107.165 14.3321C111.157 14.3321 112.263 17.1658 112.263 20.6409C112.263 24.333 111.073 26.9936 107.08 26.9936Z" fill="#1D4FFF"/>
</g>
<defs>
<clipPath id="clip0_214_529">
<rect width="118" height="47" fill="white"/>
</clipPath>
</defs>
</svg>
